<?xml version="1.0" encoding="UTF-8"?>
<svg xmlns="http://www.w3.org/2000/svg" xmlns:xlink="http://www.w3.org/1999/xlink" width="40pt" height="40pt" viewBox="0 0 40 40" version="1.1">
<g id="surface1">
<path style=" stroke:none;fill-rule:nonzero;fill:rgb(18.823529%,18.823529%,18.823529%);fill-opacity:1;" d="M 5.582031 9.921875 L 5.582031 36.582031 C 5.582031 38.441406 7.441406 39.683594 8.679688 39.683594 L 30.382812 39.683594 L 30.382812 6.820312 L 8.679688 6.820312 C 6.820312 6.820312 5.582031 8.058594 5.582031 9.921875 Z M 5.582031 9.921875 "/>
<path style=" stroke:none;fill-rule:nonzero;fill:rgb(86.666667%,86.666667%,86.666667%);fill-opacity:1;" d="M 6.820312 35.960938 C 6.820312 37.203125 7.441406 38.441406 9.300781 38.441406 L 29.140625 38.441406 L 29.140625 33.480469 L 9.300781 33.480469 C 7.441406 33.480469 6.820312 34.722656 6.820312 35.960938 Z M 6.820312 35.960938 "/>
<path style=" stroke:none;fill-rule:nonzero;fill:rgb(31.372549%,31.372549%,31.372549%);fill-opacity:1;" d="M 11.160156 33.480469 L 30.382812 33.480469 L 30.382812 6.820312 L 11.160156 6.820312 Z M 11.160156 33.480469 "/>
<path style=" stroke:none;fill-rule:nonzero;fill:rgb(0%,54.117647%,0%);fill-opacity:1;" d="M 8.679688 3.71875 L 8.679688 30.382812 C 8.679688 32.242188 10.539062 33.480469 11.78125 33.480469 L 33.480469 33.480469 L 33.480469 0.621094 L 11.78125 0.621094 C 9.921875 0.621094 8.679688 1.859375 8.679688 3.71875 Z M 8.679688 3.71875 "/>
<path style=" stroke:none;fill-rule:nonzero;fill:rgb(86.666667%,86.666667%,86.666667%);fill-opacity:1;" d="M 9.921875 29.761719 C 9.921875 31.003906 10.539062 32.242188 12.402344 32.242188 L 32.242188 32.242188 L 32.242188 27.28125 L 12.402344 27.28125 C 10.539062 27.28125 9.921875 28.523438 9.921875 29.761719 Z M 9.921875 29.761719 "/>
<path style=" stroke:none;fill-rule:nonzero;fill:rgb(37.647059%,66.27451%,9.019608%);fill-opacity:1;" d="M 14.261719 27.28125 L 33.480469 27.28125 L 33.480469 0.621094 L 14.261719 0.621094 Z M 14.261719 27.28125 "/>
<path style=" stroke:none;fill-rule:nonzero;fill:rgb(47.843137%,23.137255%,24.705882%);fill-opacity:1;" d="M 5.582031 26.660156 C 5.582031 24.800781 8.058594 18.601562 11.78125 18.601562 L 33.480469 18.601562 L 33.480469 12.402344 L 11.78125 12.402344 C 7.441406 12.402344 5.582031 16.742188 5.582031 19.222656 Z M 5.582031 26.660156 "/>
</g>
</svg>
